M48
; DRILL file {KiCad 9.0.1} date 2025-06-09T10:41:19+0200
; FORMAT={-:-/ absolute / metric / decimal}
; #@! TF.CreationDate,2025-06-09T10:41:19+02:00
; #@! TF.GenerationSoftware,Kicad,Pcbnew,9.0.1
; #@! TF.FileFunction,Plated,1,2,PTH
FMAT,2
METRIC
; #@! TA.AperFunction,Plated,PTH,ViaDrill
T1C0.400
; #@! TA.AperFunction,Plated,PTH,ViaDrill
T2C1.100
; #@! TA.AperFunction,Plated,PTH,ComponentDrill
T3C1.100
; #@! TA.AperFunction,Plated,PTH,ComponentDrill
T4C1.500
; #@! TA.AperFunction,Plated,PTH,ComponentDrill
T5C1.600
; #@! TA.AperFunction,Plated,PTH,ComponentDrill
T6C2.000
; #@! TA.AperFunction,Plated,PTH,ViaDrill
T7C2.200
; #@! TA.AperFunction,Plated,PTH,ComponentDrill
T8C2.200
; #@! TA.AperFunction,Plated,PTH,ComponentDrill
T9C3.500
%
G90
G05
T1
X163.83Y-92.075
X167.64Y-86.995
X167.64Y-92.075
X265.43Y-196.215
X270.51Y-196.215
X377.19Y-76.835
T2
X21.59Y-126.365
X22.86Y-81.915
X24.13Y-211.455
X26.67Y-207.645
X26.67Y-210.185
X29.21Y-211.455
X31.75Y-71.755
X33.02Y-178.435
X34.29Y-71.755
X34.29Y-158.115
X34.29Y-163.195
X34.29Y-217.805
X35.56Y-178.435
X36.83Y-71.755
X36.83Y-186.055
X36.83Y-219.075
X36.83Y-221.615
X36.83Y-224.155
X39.37Y-66.675
X39.37Y-99.695
X39.37Y-104.775
X39.37Y-135.255
X39.37Y-137.795
X39.37Y-213.995
X39.37Y-222.885
X41.91Y-84.455
X41.91Y-150.495
X41.91Y-182.245
X41.91Y-186.055
X41.91Y-225.425
X44.45Y-132.715
X44.45Y-142.875
X44.45Y-155.575
X46.99Y-88.265
X46.99Y-94.615
X46.99Y-97.155
X46.99Y-99.695
X46.99Y-153.035
X48.26Y-85.725
X49.53Y-89.535
X49.53Y-140.335
X49.53Y-170.815
X49.53Y-178.435
X49.53Y-225.425
X50.8Y-164.465
X50.8Y-215.265
X52.07Y-64.135
X52.07Y-66.675
X52.07Y-74.295
X52.07Y-137.795
X52.07Y-145.415
X52.07Y-182.245
X52.07Y-225.425
X54.61Y-137.795
X58.42Y-225.425
X59.69Y-139.065
X62.23Y-89.535
X62.23Y-103.505
X62.23Y-106.045
X62.23Y-125.095
X62.23Y-127.635
X63.5Y-86.995
X63.5Y-122.555
X63.5Y-130.175
X64.77Y-102.235
X64.77Y-104.775
X64.77Y-108.585
X64.77Y-111.125
X64.77Y-146.685
X64.77Y-180.975
X64.77Y-188.595
X64.77Y-213.995
X64.77Y-216.535
X66.04Y-74.295
X66.04Y-88.265
X66.04Y-126.365
X67.31Y-92.075
X67.31Y-97.155
X67.31Y-100.965
X67.31Y-135.255
X69.85Y-81.915
X69.85Y-132.715
X72.39Y-84.455
X72.39Y-225.425
X74.93Y-145.415
X76.2Y-64.135
X77.47Y-125.095
X77.47Y-141.605
X77.47Y-189.865
X77.47Y-194.945
X77.47Y-202.565
X78.74Y-113.665
X78.74Y-116.205
X80.01Y-89.535
X80.01Y-92.075
X80.01Y-94.615
X80.01Y-99.695
X81.28Y-177.165
X83.82Y-170.815
X85.09Y-66.675
X85.09Y-78.105
X85.09Y-81.915
X85.09Y-104.775
X86.36Y-225.425
X87.63Y-132.715
X88.9Y-174.625
X91.44Y-111.125
X91.44Y-121.285
X91.44Y-155.575
X91.44Y-206.375
X92.71Y-67.945
X92.71Y-113.665
X92.71Y-136.525
X92.71Y-153.035
X92.71Y-201.295
X92.71Y-203.835
X93.98Y-116.205
X93.98Y-188.595
X95.25Y-118.745
X95.25Y-213.995
X97.79Y-69.215
X97.79Y-83.185
X97.79Y-170.815
X97.79Y-208.915
X99.06Y-140.335
X100.33Y-97.155
X100.33Y-136.525
X100.33Y-225.425
X105.41Y-102.235
X105.41Y-150.495
X105.41Y-163.195
X105.41Y-188.595
X105.41Y-202.565
X105.41Y-206.375
X105.41Y-213.995
X106.68Y-116.205
X107.95Y-135.255
X107.95Y-150.495
X107.95Y-186.055
X109.22Y-114.935
X109.22Y-188.595
X110.49Y-107.315
X110.49Y-109.855
X110.49Y-150.495
X110.49Y-158.115
X110.49Y-194.945
X110.49Y-197.485
X110.49Y-206.375
X110.49Y-216.535
X111.76Y-177.165
X111.76Y-211.455
X113.03Y-69.215
X113.03Y-132.715
X113.03Y-150.495
X113.03Y-182.245
X115.57Y-104.775
X115.57Y-147.955
X115.57Y-170.815
X115.57Y-225.679
X116.84Y-145.415
X118.11Y-102.235
X118.11Y-136.525
X120.65Y-93.345
X120.65Y-102.235
X120.65Y-114.935
X120.65Y-183.515
X120.65Y-186.055
X123.19Y-99.695
X123.19Y-102.235
X123.19Y-137.795
X123.19Y-165.735
X123.19Y-183.515
X123.19Y-208.915
X124.46Y-150.495
X124.46Y-169.545
X124.46Y-178.435
X124.46Y-200.025
X124.46Y-213.995
X124.46Y-216.535
X125.73Y-65.405
X125.73Y-99.695
X125.73Y-102.235
X125.73Y-140.335
X125.73Y-142.875
X125.73Y-145.415
X125.73Y-160.655
X125.73Y-163.195
X125.73Y-205.105
X125.73Y-207.645
X128.27Y-88.265
X128.27Y-99.695
X128.27Y-104.775
X128.27Y-107.315
X128.27Y-109.855
X128.27Y-112.395
X128.27Y-114.935
X128.27Y-117.475
X128.27Y-120.015
X128.27Y-127.635
X128.27Y-145.415
X128.27Y-150.495
X128.27Y-175.895
X128.27Y-213.995
X130.746Y-225.742
X130.81Y-65.405
X130.81Y-132.715
X130.81Y-147.955
X130.81Y-208.915
X133.35Y-104.775
X133.35Y-112.395
X133.35Y-153.035
X133.35Y-172.085
X133.35Y-186.055
X134.62Y-65.405
X135.89Y-114.935
X135.89Y-121.285
X135.89Y-139.065
X135.89Y-145.415
X135.89Y-211.455
X137.16Y-180.975
X138.43Y-65.405
X138.43Y-99.695
X138.43Y-139.065
X138.43Y-145.415
X138.43Y-191.135
X138.43Y-211.455
X138.43Y-213.995
X139.7Y-155.575
X139.7Y-168.275
X139.7Y-175.895
X139.7Y-193.675
X139.7Y-208.915
X140.97Y-94.615
X140.97Y-107.315
X140.97Y-109.855
X140.97Y-123.825
X140.97Y-133.985
X140.97Y-160.655
X140.97Y-163.195
X140.97Y-188.595
X140.97Y-203.835
X140.97Y-206.375
X142.24Y-65.405
X142.24Y-120.015
X142.24Y-141.605
X142.24Y-216.535
X143.51Y-92.075
X143.51Y-94.615
X143.51Y-116.205
X143.51Y-125.095
X143.51Y-135.255
X143.51Y-153.035
X143.51Y-187.325
X144.78Y-144.145
X146.05Y-65.405
X146.05Y-75.565
X146.05Y-136.525
X146.05Y-147.955
X146.05Y-208.915
X146.05Y-225.615
X148.59Y-97.155
X148.59Y-155.575
X148.59Y-172.085
X148.59Y-191.135
X151.13Y-85.725
X151.13Y-114.935
X151.13Y-117.475
X151.13Y-140.335
X151.13Y-142.875
X151.13Y-187.325
X152.4Y-107.315
X152.4Y-112.395
X153.67Y-81.915
X153.67Y-114.935
X153.67Y-131.445
X153.67Y-137.795
X153.67Y-178.435
X153.67Y-203.835
X154.94Y-84.455
X154.94Y-90.805
X154.94Y-128.905
X154.94Y-193.675
X154.94Y-207.645
X156.21Y-74.295
X156.21Y-126.365
X156.21Y-153.035
X156.21Y-155.575
X156.21Y-158.115
X156.21Y-161.925
X156.21Y-168.275
X156.21Y-175.895
X156.21Y-179.705
X156.21Y-187.325
X156.21Y-201.295
X156.21Y-205.105
X157.48Y-86.995
X157.48Y-90.805
X157.48Y-93.345
X157.48Y-123.825
X157.48Y-145.415
X157.48Y-189.865
X158.75Y-121.285
X158.75Y-132.715
X158.75Y-142.875
X158.75Y-187.325
X161.29Y-147.955
X161.29Y-225.679
X163.83Y-150.495
X163.83Y-172.085
X166.37Y-65.405
X166.37Y-74.295
X166.37Y-83.185
X166.37Y-107.315
X166.37Y-114.935
X166.37Y-120.015
X166.37Y-187.325
X166.37Y-189.865
X167.64Y-94.615
X167.64Y-97.155
X168.91Y-71.755
X168.91Y-74.295
X168.91Y-84.455
X168.91Y-107.315
X168.91Y-118.745
X168.91Y-121.285
X168.91Y-201.295
X168.91Y-216.535
X170.18Y-81.915
X170.18Y-109.855
X170.18Y-146.685
X170.18Y-168.275
X170.18Y-182.245
X170.18Y-194.945
X170.18Y-203.835
X170.18Y-206.375
X171.45Y-92.075
X171.45Y-97.155
X171.45Y-118.745
X171.45Y-130.175
X171.45Y-150.495
X171.45Y-186.055
X171.45Y-197.485
X171.45Y-216.535
X172.72Y-122.555
X172.72Y-182.245
X173.99Y-125.095
X173.99Y-128.905
X173.99Y-135.255
X173.99Y-187.325
X176.53Y-106.045
X176.53Y-117.475
X176.53Y-225.615
X179.07Y-84.455
X179.07Y-173.355
X179.07Y-189.865
X181.61Y-90.805
X181.61Y-102.235
X181.61Y-113.665
X181.61Y-122.555
X181.61Y-125.095
X181.61Y-128.905
X181.61Y-135.255
X181.61Y-145.415
X181.61Y-147.955
X181.61Y-170.815
X181.61Y-183.515
X181.61Y-186.055
X182.88Y-86.995
X182.88Y-94.615
X182.88Y-98.425
X182.88Y-175.895
X182.88Y-178.435
X184.15Y-92.075
X184.15Y-127.635
X184.15Y-193.675
X184.15Y-201.295
X185.42Y-86.995
X185.42Y-95.885
X185.42Y-117.475
X185.42Y-130.175
X185.42Y-207.645
X186.69Y-99.695
X186.69Y-139.065
X186.69Y-141.605
X186.69Y-150.495
X186.69Y-205.105
X187.96Y-75.565
X189.23Y-80.645
X189.23Y-121.285
X189.23Y-130.175
X189.23Y-132.715
X189.23Y-198.755
X189.23Y-220.345
X191.77Y-117.475
X191.77Y-220.345
X194.31Y-186.055
X194.31Y-225.615
X196.85Y-130.175
X199.39Y-135.255
X199.39Y-198.755
X201.93Y-201.295
X207.01Y-183.515
X208.28Y-74.295
X209.55Y-186.055
X209.55Y-191.135
X209.55Y-194.945
X210.82Y-132.715
X213.36Y-98.425
X213.36Y-100.965
X213.36Y-147.955
X213.36Y-177.165
X214.63Y-142.875
X214.63Y-161.925
X214.63Y-173.355
X214.832Y-201.7
X217.17Y-78.105
X217.17Y-80.645
X217.17Y-107.315
X217.17Y-142.875
X217.17Y-201.295
X218.44Y-135.255
X218.44Y-182.245
X218.44Y-192.405
X219.71Y-76.835
X219.71Y-89.535
X219.71Y-120.015
X219.71Y-149.225
X219.71Y-201.295
X220.98Y-160.655
X220.98Y-163.195
X220.98Y-165.735
X220.98Y-168.275
X222.25Y-76.835
X222.25Y-84.455
X222.25Y-86.995
X222.25Y-97.155
X222.25Y-150.495
X222.25Y-153.035
X222.25Y-155.575
X222.25Y-158.115
X222.25Y-175.895
X222.25Y-179.705
X222.25Y-182.245
X223.52Y-141.605
X223.52Y-160.655
X223.52Y-163.195
X223.52Y-165.735
X223.52Y-168.275
X223.52Y-173.355
X223.52Y-193.675
X223.52Y-198.755
X224.79Y-66.675
X224.79Y-69.215
X224.79Y-83.185
X224.79Y-86.995
X224.79Y-89.535
X224.79Y-92.075
X224.79Y-109.855
X224.79Y-114.935
X226.06Y-99.695
X226.06Y-102.235
X226.06Y-104.775
X229.87Y-154.305
X229.87Y-156.845
X229.87Y-159.385
X229.87Y-161.925
X229.87Y-179.705
X229.87Y-193.675
X231.14Y-182.245
X234.95Y-146.685
X237.49Y-203.835
X237.49Y-206.375
X240.03Y-203.835
X240.03Y-206.375
X240.03Y-208.915
X241.3Y-165.735
X241.3Y-179.705
X242.57Y-71.755
X242.57Y-97.155
X242.57Y-118.745
X245.11Y-71.755
X245.11Y-97.155
X245.11Y-225.742
X247.65Y-71.755
X247.65Y-97.155
X247.65Y-137.795
X247.65Y-144.145
X250.19Y-71.755
X250.19Y-97.155
X250.19Y-173.355
X250.19Y-225.742
X252.73Y-112.395
X252.73Y-225.742
X255.27Y-170.815
X255.27Y-225.742
X256.54Y-130.175
X256.54Y-163.195
X256.54Y-165.735
X259.715Y-130.175
X260.35Y-114.935
X261.62Y-163.195
X262.89Y-114.935
X262.89Y-130.175
X262.89Y-144.145
X262.89Y-158.115
X265.43Y-71.755
X265.43Y-97.155
X265.43Y-114.935
X265.43Y-186.055
X270.51Y-188.912
X273.05Y-118.745
X273.05Y-121.285
X275.59Y-142.875
X275.59Y-151.765
X275.59Y-196.215
X276.86Y-122.555
X276.86Y-147.955
X276.86Y-154.305
X278.13Y-120.015
X278.13Y-206.375
X278.13Y-213.995
X281.94Y-145.415
X283.21Y-173.355
X283.21Y-201.295
X284.48Y-147.955
X284.48Y-160.655
X285.75Y-114.935
X285.75Y-130.175
X288.29Y-114.935
X288.29Y-130.175
X290.83Y-114.935
X290.83Y-130.175
X290.83Y-213.995
X293.37Y-114.935
X293.37Y-130.175
X295.91Y-147.955
X298.45Y-160.655
X298.45Y-208.915
X298.45Y-213.995
X303.53Y-196.215
X303.53Y-225.552
X306.07Y-225.552
X308.61Y-196.215
X308.61Y-225.552
X309.88Y-179.705
X323.85Y-128.905
X325.12Y-123.825
X326.39Y-126.365
X326.39Y-130.175
X336.55Y-94.615
X339.09Y-94.615
X341.63Y-94.615
X364.49Y-213.995
X364.49Y-225.425
X367.03Y-213.995
X367.03Y-225.425
X369.57Y-213.995
X369.57Y-225.425
T3
X22.543Y-208.915
X22.86Y-140.335
X22.86Y-145.415
X22.86Y-150.495
X22.86Y-155.575
X22.86Y-160.655
X22.86Y-165.735
X22.86Y-170.815
X22.86Y-183.515
X22.86Y-188.595
X22.86Y-193.675
X22.86Y-198.755
X22.86Y-203.835
X29.21Y-85.725
X29.21Y-88.265
X29.21Y-90.805
X29.21Y-93.345
X29.21Y-95.885
X29.21Y-98.425
X29.21Y-100.965
X29.21Y-103.505
X29.21Y-106.045
X29.21Y-108.585
X29.21Y-111.125
X29.21Y-113.665
X29.21Y-116.205
X29.21Y-118.745
X29.21Y-121.285
X29.21Y-123.825
X29.21Y-126.365
X29.21Y-128.905
X29.21Y-133.985
X35.242Y-208.915
X35.56Y-140.335
X35.56Y-145.415
X35.56Y-150.495
X35.56Y-155.575
X35.56Y-160.655
X35.56Y-165.735
X35.56Y-170.815
X35.56Y-183.515
X35.56Y-188.595
X35.56Y-193.675
X35.56Y-198.755
X35.56Y-203.835
X36.83Y-84.455
X36.83Y-86.995
X36.83Y-89.535
X36.83Y-92.075
X36.83Y-94.615
X36.83Y-97.155
X36.83Y-99.695
X36.83Y-102.235
X36.83Y-104.775
X36.83Y-107.315
X36.83Y-109.855
X36.83Y-112.395
X36.83Y-114.935
X36.83Y-117.475
X36.83Y-120.015
X36.83Y-122.555
X36.83Y-125.095
X36.83Y-127.635
X36.83Y-130.175
X36.83Y-132.715
X39.37Y-79.375
X39.37Y-155.575
X39.37Y-158.115
X39.37Y-160.655
X39.37Y-163.195
X39.37Y-165.735
X39.37Y-168.275
X39.37Y-170.815
X39.37Y-193.675
X39.37Y-196.215
X39.37Y-198.755
X39.37Y-201.295
X39.37Y-203.835
X39.37Y-206.375
X39.37Y-208.915
X41.91Y-175.895
X41.91Y-213.995
X44.45Y-79.375
X46.99Y-155.575
X46.99Y-158.115
X46.99Y-160.655
X46.99Y-163.195
X46.99Y-165.735
X46.99Y-168.275
X46.99Y-170.815
X46.99Y-175.895
X46.99Y-182.245
X46.99Y-187.325
X46.99Y-193.675
X46.99Y-196.215
X46.99Y-198.755
X46.99Y-201.295
X46.99Y-203.835
X46.99Y-206.375
X46.99Y-208.915
X46.99Y-213.995
X52.07Y-84.455
X52.07Y-86.995
X52.07Y-89.535
X52.07Y-92.075
X52.07Y-94.615
X52.07Y-97.155
X52.07Y-99.695
X52.07Y-102.235
X52.07Y-104.775
X52.07Y-107.315
X52.07Y-109.855
X52.07Y-112.395
X52.07Y-114.935
X52.07Y-117.475
X52.07Y-120.015
X52.07Y-122.555
X52.07Y-125.095
X52.07Y-127.635
X52.07Y-130.175
X52.07Y-132.715
X53.34Y-153.035
X53.34Y-155.575
X53.34Y-158.115
X53.34Y-160.655
X53.34Y-163.195
X53.34Y-165.735
X53.34Y-168.275
X53.34Y-170.815
X53.34Y-191.135
X53.34Y-193.675
X53.34Y-196.215
X53.34Y-198.755
X53.34Y-201.295
X53.34Y-203.835
X53.34Y-206.375
X53.34Y-208.915
X54.61Y-142.875
X55.88Y-147.955
X55.88Y-178.435
X55.88Y-186.055
X55.88Y-216.535
X59.69Y-79.375
X59.69Y-84.455
X59.69Y-86.995
X59.69Y-89.535
X59.69Y-92.075
X59.69Y-94.615
X59.69Y-97.155
X59.69Y-99.695
X59.69Y-102.235
X59.69Y-104.775
X59.69Y-107.315
X59.69Y-109.855
X59.69Y-112.395
X59.69Y-114.935
X59.69Y-117.475
X59.69Y-120.015
X59.69Y-122.555
X59.69Y-125.095
X59.69Y-127.635
X59.69Y-130.175
X59.69Y-132.715
X60.96Y-147.955
X60.96Y-153.035
X60.96Y-155.575
X60.96Y-158.115
X60.96Y-160.655
X60.96Y-163.195
X60.96Y-165.735
X60.96Y-168.275
X60.96Y-170.815
X60.96Y-178.435
X60.96Y-186.055
X60.96Y-191.135
X60.96Y-193.675
X60.96Y-196.215
X60.96Y-198.755
X60.96Y-201.295
X60.96Y-203.835
X60.96Y-206.375
X60.96Y-208.915
X60.96Y-216.535
X62.23Y-66.675
X64.77Y-66.675
X64.77Y-79.375
X67.31Y-66.675
X67.31Y-142.875
X67.31Y-153.035
X67.31Y-155.575
X67.31Y-158.115
X67.31Y-160.655
X67.31Y-163.195
X67.31Y-165.735
X67.31Y-168.275
X67.31Y-170.815
X67.31Y-191.135
X67.31Y-193.675
X67.31Y-196.215
X67.31Y-198.755
X67.31Y-201.295
X67.31Y-203.835
X67.31Y-206.375
X67.31Y-208.915
X67.818Y-176.911
X69.85Y-66.675
X69.85Y-147.955
X69.85Y-186.055
X72.39Y-66.675
X72.898Y-176.911
X73.66Y-79.375
X74.93Y-66.675
X74.93Y-84.455
X74.93Y-86.995
X74.93Y-89.535
X74.93Y-92.075
X74.93Y-94.615
X74.93Y-97.155
X74.93Y-99.695
X74.93Y-102.235
X74.93Y-104.775
X74.93Y-107.315
X74.93Y-109.855
X74.93Y-112.395
X74.93Y-114.935
X74.93Y-117.475
X74.93Y-120.015
X74.93Y-122.555
X74.93Y-125.095
X74.93Y-127.635
X74.93Y-130.175
X74.93Y-132.715
X74.93Y-147.955
X74.93Y-153.035
X74.93Y-155.575
X74.93Y-158.115
X74.93Y-160.655
X74.93Y-163.195
X74.93Y-165.735
X74.93Y-168.275
X74.93Y-170.815
X74.93Y-186.055
X74.93Y-191.135
X74.93Y-193.675
X74.93Y-196.215
X74.93Y-198.755
X74.93Y-201.295
X74.93Y-203.835
X74.93Y-206.375
X74.93Y-208.915
X76.2Y-178.435
X77.47Y-66.675
X77.47Y-137.795
X78.74Y-79.375
X80.01Y-66.675
X80.01Y-213.995
X81.28Y-153.035
X81.28Y-155.575
X81.28Y-158.115
X81.28Y-160.655
X81.28Y-163.195
X81.28Y-165.735
X81.28Y-168.275
X81.28Y-170.815
X81.28Y-191.135
X81.28Y-193.675
X81.28Y-196.215
X81.28Y-198.755
X81.28Y-201.295
X81.28Y-203.835
X81.28Y-206.375
X81.28Y-208.915
X82.55Y-75.565
X82.55Y-84.455
X82.55Y-97.155
X82.55Y-104.775
X82.55Y-107.315
X82.55Y-109.855
X82.55Y-112.395
X82.55Y-114.935
X82.55Y-117.475
X82.55Y-120.015
X82.55Y-122.555
X82.55Y-125.095
X82.55Y-127.635
X82.55Y-130.175
X82.55Y-132.715
X82.55Y-137.795
X83.82Y-147.955
X83.82Y-186.055
X88.9Y-147.955
X88.9Y-153.035
X88.9Y-155.575
X88.9Y-158.115
X88.9Y-160.655
X88.9Y-163.195
X88.9Y-165.735
X88.9Y-168.275
X88.9Y-170.815
X88.9Y-178.435
X88.9Y-186.055
X88.9Y-191.135
X88.9Y-193.675
X88.9Y-196.215
X88.9Y-198.755
X88.9Y-201.295
X88.9Y-203.835
X88.9Y-206.375
X88.9Y-208.915
X90.17Y-81.915
X90.17Y-86.995
X90.17Y-90.805
X90.17Y-94.615
X90.17Y-99.695
X90.17Y-137.795
X90.17Y-142.875
X92.71Y-145.415
X92.71Y-158.115
X92.71Y-213.995
X95.25Y-75.565
X95.25Y-99.695
X95.25Y-153.035
X95.25Y-155.575
X95.25Y-158.115
X95.25Y-160.655
X95.25Y-163.195
X95.25Y-165.735
X95.25Y-168.275
X95.25Y-170.815
X95.25Y-191.135
X95.25Y-193.675
X95.25Y-196.215
X95.25Y-198.755
X95.25Y-201.295
X95.25Y-203.835
X95.25Y-206.375
X95.25Y-208.915
X97.79Y-104.775
X97.79Y-107.315
X97.79Y-109.855
X97.79Y-112.395
X97.79Y-114.935
X97.79Y-117.475
X97.79Y-120.015
X97.79Y-122.555
X97.79Y-125.095
X97.79Y-127.635
X97.79Y-130.175
X97.79Y-132.715
X97.79Y-147.955
X97.79Y-186.055
X102.87Y-81.915
X102.87Y-86.995
X102.87Y-90.805
X102.87Y-94.615
X102.87Y-104.775
X102.87Y-107.315
X102.87Y-109.855
X102.87Y-112.395
X102.87Y-114.935
X102.87Y-117.475
X102.87Y-120.015
X102.87Y-122.555
X102.87Y-125.095
X102.87Y-127.635
X102.87Y-130.175
X102.87Y-132.715
X102.87Y-137.795
X102.87Y-142.875
X102.87Y-147.955
X102.87Y-153.035
X102.87Y-155.575
X102.87Y-158.115
X102.87Y-160.655
X102.87Y-163.195
X102.87Y-165.735
X102.87Y-168.275
X102.87Y-170.815
X102.87Y-186.055
X102.87Y-191.135
X102.87Y-193.675
X102.87Y-196.215
X102.87Y-198.755
X102.87Y-201.295
X102.87Y-203.835
X102.87Y-206.375
X102.87Y-208.915
X107.95Y-79.375
X107.95Y-81.915
X107.95Y-84.455
X107.95Y-142.875
X107.95Y-153.035
X107.95Y-155.575
X107.95Y-158.115
X107.95Y-160.655
X107.95Y-163.195
X107.95Y-165.735
X107.95Y-168.275
X107.95Y-170.815
X107.95Y-191.135
X107.95Y-193.675
X107.95Y-196.215
X107.95Y-198.755
X107.95Y-201.295
X107.95Y-203.835
X107.95Y-206.375
X107.95Y-208.915
X110.49Y-94.615
X110.49Y-99.695
X113.03Y-79.375
X113.03Y-81.915
X113.03Y-84.455
X113.03Y-89.535
X113.03Y-153.035
X113.03Y-155.575
X113.03Y-158.115
X113.03Y-160.655
X113.03Y-163.195
X113.03Y-165.735
X113.03Y-168.275
X113.03Y-170.815
X113.157Y-191.071
X113.157Y-193.611
X113.157Y-196.151
X113.157Y-198.691
X113.157Y-201.231
X113.157Y-203.772
X113.157Y-206.311
X113.157Y-208.851
X115.57Y-99.695
X115.57Y-175.895
X115.57Y-213.995
X118.11Y-76.835
X118.11Y-79.375
X118.11Y-81.915
X118.11Y-89.535
X118.11Y-104.775
X118.11Y-107.315
X118.11Y-109.855
X118.11Y-112.395
X118.11Y-114.935
X118.11Y-117.475
X118.11Y-120.015
X118.11Y-122.555
X118.11Y-125.095
X118.11Y-127.635
X118.11Y-130.175
X118.11Y-132.715
X120.65Y-142.875
X120.65Y-153.035
X120.65Y-155.575
X120.65Y-158.115
X120.65Y-160.655
X120.65Y-163.195
X120.65Y-165.735
X120.65Y-168.275
X120.65Y-170.815
X120.65Y-175.895
X120.65Y-213.995
X120.777Y-191.071
X120.777Y-193.611
X120.777Y-196.151
X120.777Y-198.691
X120.777Y-201.231
X120.777Y-203.772
X120.777Y-206.311
X120.777Y-208.851
X123.19Y-94.615
X123.19Y-104.775
X123.19Y-107.315
X123.19Y-109.855
X123.19Y-112.395
X123.19Y-114.935
X123.19Y-117.475
X123.19Y-120.015
X123.19Y-122.555
X123.19Y-125.095
X123.19Y-127.635
X123.19Y-130.175
X123.19Y-132.715
X125.73Y-89.535
X128.27Y-153.035
X128.27Y-155.575
X128.27Y-158.115
X128.27Y-160.655
X128.27Y-163.195
X128.27Y-165.735
X128.27Y-168.275
X128.27Y-170.815
X128.27Y-186.055
X128.27Y-188.595
X128.27Y-191.135
X128.27Y-193.675
X128.27Y-196.215
X128.27Y-198.755
X128.27Y-201.295
X128.27Y-203.835
X128.27Y-206.375
X128.27Y-208.915
X130.81Y-94.615
X130.81Y-99.695
X130.81Y-175.895
X130.81Y-213.995
X135.89Y-94.615
X135.89Y-99.695
X135.89Y-153.035
X135.89Y-155.575
X135.89Y-158.115
X135.89Y-160.655
X135.89Y-163.195
X135.89Y-165.735
X135.89Y-168.275
X135.89Y-170.815
X135.89Y-175.895
X135.89Y-186.055
X135.89Y-188.595
X135.89Y-191.135
X135.89Y-193.675
X135.89Y-196.215
X135.89Y-198.755
X135.89Y-201.295
X135.89Y-203.835
X135.89Y-206.375
X135.89Y-208.915
X135.89Y-213.995
X138.43Y-89.535
X138.43Y-104.775
X138.43Y-107.315
X138.43Y-109.855
X138.43Y-112.395
X138.43Y-114.935
X138.43Y-117.475
X138.43Y-120.015
X138.43Y-122.555
X138.43Y-125.095
X138.43Y-127.635
X138.43Y-130.175
X138.43Y-132.715
X143.51Y-155.575
X143.51Y-158.115
X143.51Y-160.655
X143.51Y-163.195
X143.51Y-165.735
X143.51Y-168.275
X143.51Y-170.815
X143.51Y-191.135
X143.51Y-193.675
X143.51Y-196.215
X143.51Y-198.755
X143.51Y-201.295
X143.51Y-203.835
X143.51Y-206.375
X143.51Y-208.915
X146.05Y-79.375
X146.05Y-84.455
X146.05Y-86.995
X146.05Y-89.535
X146.05Y-92.075
X146.05Y-94.615
X146.05Y-97.155
X146.05Y-99.695
X146.05Y-102.235
X146.05Y-104.775
X146.05Y-107.315
X146.05Y-109.855
X146.05Y-112.395
X146.05Y-114.935
X146.05Y-117.475
X146.05Y-120.015
X146.05Y-122.555
X146.05Y-125.095
X146.05Y-127.635
X146.05Y-130.175
X146.05Y-132.715
X146.05Y-175.895
X146.05Y-213.995
X151.13Y-79.375
X151.13Y-155.575
X151.13Y-158.115
X151.13Y-160.655
X151.13Y-163.195
X151.13Y-165.735
X151.13Y-168.275
X151.13Y-170.815
X151.13Y-175.895
X151.13Y-191.135
X151.13Y-193.675
X151.13Y-196.215
X151.13Y-198.755
X151.13Y-201.295
X151.13Y-203.835
X151.13Y-206.375
X151.13Y-208.915
X151.13Y-213.995
X158.75Y-150.495
X158.75Y-153.035
X158.75Y-155.575
X158.75Y-158.115
X158.75Y-160.655
X158.75Y-163.195
X158.75Y-165.735
X158.75Y-168.275
X158.75Y-170.815
X158.75Y-193.675
X158.75Y-196.215
X158.75Y-198.755
X158.75Y-201.295
X158.75Y-203.835
X158.75Y-206.375
X158.75Y-208.915
X161.29Y-74.295
X161.29Y-79.375
X161.29Y-84.455
X161.29Y-86.995
X161.29Y-89.535
X161.29Y-92.075
X161.29Y-94.615
X161.29Y-97.155
X161.29Y-99.695
X161.29Y-102.235
X161.29Y-104.775
X161.29Y-107.315
X161.29Y-109.855
X161.29Y-112.395
X161.29Y-114.935
X161.29Y-117.475
X161.29Y-120.015
X161.29Y-122.555
X161.29Y-125.095
X161.29Y-127.635
X161.29Y-130.175
X161.29Y-132.715
X161.29Y-137.795
X161.29Y-142.875
X161.29Y-175.895
X161.29Y-213.995
X166.37Y-137.795
X166.37Y-142.875
X166.37Y-150.495
X166.37Y-153.035
X166.37Y-155.575
X166.37Y-158.115
X166.37Y-160.655
X166.37Y-163.195
X166.37Y-165.735
X166.37Y-168.275
X166.37Y-170.815
X166.37Y-175.895
X166.37Y-193.675
X166.37Y-196.215
X166.37Y-198.755
X166.37Y-201.295
X166.37Y-203.835
X166.37Y-206.375
X166.37Y-208.915
X166.37Y-213.995
X167.64Y-99.695
X167.64Y-112.395
X173.99Y-79.375
X173.99Y-84.455
X173.99Y-86.995
X173.99Y-89.535
X173.99Y-92.075
X173.99Y-94.615
X173.99Y-97.155
X173.99Y-99.695
X173.99Y-102.235
X173.99Y-104.775
X173.99Y-107.315
X173.99Y-109.855
X173.99Y-112.395
X173.99Y-114.935
X173.99Y-117.475
X173.99Y-137.795
X173.99Y-140.335
X173.99Y-142.875
X173.99Y-145.415
X173.99Y-147.955
X173.99Y-150.495
X173.99Y-153.035
X173.99Y-155.575
X173.99Y-158.115
X173.99Y-160.655
X173.99Y-163.195
X173.99Y-165.735
X173.99Y-168.275
X173.99Y-170.815
X173.99Y-193.675
X173.99Y-196.215
X173.99Y-198.755
X173.99Y-201.295
X173.99Y-203.835
X173.99Y-206.375
X173.99Y-208.915
X176.53Y-132.715
X176.53Y-213.995
X179.07Y-79.375
X181.61Y-132.715
X181.61Y-193.675
X181.61Y-196.215
X181.61Y-198.755
X181.61Y-201.295
X181.61Y-203.835
X181.61Y-206.375
X181.61Y-208.915
X181.61Y-213.995
X189.23Y-84.455
X189.23Y-86.995
X189.23Y-89.535
X189.23Y-92.075
X189.23Y-94.615
X189.23Y-97.155
X189.23Y-99.695
X189.23Y-102.235
X189.23Y-104.775
X189.23Y-107.315
X189.23Y-109.855
X189.23Y-112.395
X189.23Y-114.935
X189.23Y-117.475
X189.23Y-137.795
X189.23Y-140.335
X189.23Y-142.875
X189.23Y-145.415
X189.23Y-147.955
X189.23Y-150.495
X189.23Y-153.035
X189.23Y-155.575
X189.23Y-158.115
X189.23Y-160.655
X189.23Y-163.195
X189.23Y-165.735
X189.23Y-168.275
X189.23Y-170.815
X189.23Y-201.295
X189.23Y-206.375
X191.77Y-183.515
X191.77Y-188.595
X191.77Y-193.675
X194.31Y-84.455
X194.31Y-97.155
X194.31Y-109.855
X194.31Y-114.935
X194.31Y-121.285
X194.31Y-127.635
X194.31Y-132.709
X194.31Y-137.795
X194.31Y-142.875
X194.31Y-147.955
X194.31Y-201.295
X194.31Y-206.375
X195.58Y-172.085
X195.58Y-177.165
X196.85Y-154.305
X196.85Y-163.195
X196.85Y-183.515
X199.39Y-84.455
X199.39Y-97.155
X201.93Y-109.855
X201.93Y-112.395
X201.93Y-114.935
X201.93Y-118.11
X201.93Y-154.305
X201.93Y-163.195
X204.47Y-84.455
X204.47Y-97.155
X204.47Y-172.085
X204.47Y-177.165
X204.47Y-188.595
X204.47Y-193.675
X207.01Y-118.11
X207.01Y-121.285
X207.01Y-127.635
X207.01Y-132.709
X207.01Y-137.795
X207.01Y-142.875
X207.01Y-147.955
X207.222Y-109.259
X209.55Y-154.305
X209.55Y-159.385
X209.55Y-198.755
X214.63Y-117.475
X214.63Y-122.555
X214.63Y-186.055
X214.63Y-191.135
X214.63Y-198.755
X220.98Y-186.055
X220.98Y-198.755
X221.056Y-107.315
X232.41Y-135.255
X232.41Y-140.335
X232.41Y-165.735
X232.41Y-170.815
X232.41Y-178.435
X232.41Y-191.135
X237.49Y-147.955
X237.49Y-150.495
X237.49Y-153.035
X237.49Y-155.575
X237.49Y-158.115
X237.49Y-160.655
X237.49Y-163.195
X237.49Y-165.735
X237.49Y-168.275
X237.49Y-170.815
X237.49Y-173.355
X237.49Y-175.895
X237.49Y-178.435
X237.49Y-180.975
X237.49Y-183.515
X237.49Y-186.055
X237.49Y-188.595
X237.49Y-191.135
X237.49Y-193.675
X237.49Y-196.215
X241.951Y-112.014
X242.57Y-206.375
X242.57Y-211.455
X244.491Y-112.014
X245.11Y-135.255
X245.11Y-140.335
X247.031Y-112.014
X249.571Y-112.014
X250.19Y-206.375
X250.19Y-213.995
X251.46Y-135.255
X251.46Y-140.335
X252.73Y-147.955
X252.73Y-150.495
X252.73Y-153.035
X252.73Y-155.575
X252.73Y-158.115
X252.73Y-160.655
X252.73Y-163.195
X252.73Y-165.735
X252.73Y-168.275
X252.73Y-170.815
X252.73Y-173.355
X252.73Y-175.895
X252.73Y-178.435
X252.73Y-180.975
X252.73Y-183.515
X252.73Y-186.055
X252.73Y-188.595
X252.73Y-191.135
X252.73Y-193.675
X252.73Y-196.215
X255.27Y-125.095
X256.54Y-135.255
X256.54Y-147.955
X256.54Y-168.275
X257.81Y-175.895
X257.81Y-188.595
X259.08Y-154.305
X259.08Y-159.385
X259.08Y-165.735
X260.35Y-125.095
X260.35Y-135.255
X260.35Y-147.955
X261.62Y-168.275
X261.62Y-175.895
X261.62Y-188.595
X262.89Y-206.375
X262.89Y-213.995
X265.43Y-140.335
X265.43Y-142.875
X265.43Y-145.415
X265.43Y-147.955
X265.43Y-150.495
X265.43Y-153.035
X265.43Y-155.575
X265.43Y-160.655
X265.43Y-165.735
X265.43Y-168.275
X265.43Y-170.815
X265.43Y-173.355
X265.43Y-175.895
X265.43Y-178.435
X265.43Y-180.975
X265.43Y-183.515
X265.43Y-191.135
X265.43Y-196.215
X267.97Y-125.095
X267.97Y-135.255
X270.51Y-160.655
X270.51Y-196.215
X270.51Y-208.915
X270.51Y-213.995
X273.05Y-135.255
X273.05Y-140.335
X273.05Y-142.875
X273.05Y-145.415
X273.05Y-147.955
X273.05Y-150.495
X273.05Y-153.035
X273.05Y-155.575
X273.05Y-165.735
X273.05Y-168.275
X273.05Y-170.815
X273.05Y-173.355
X273.05Y-175.895
X273.05Y-178.435
X273.05Y-180.975
X273.05Y-183.515
X273.431Y-112.014
X275.971Y-112.014
X278.13Y-163.195
X278.13Y-168.275
X278.13Y-173.355
X278.13Y-180.975
X278.13Y-191.135
X278.511Y-112.014
X279.4Y-140.335
X279.4Y-142.875
X279.4Y-145.415
X279.4Y-147.955
X279.4Y-150.495
X279.4Y-153.035
X279.4Y-155.575
X279.4Y-158.115
X280.67Y-125.095
X281.051Y-112.014
X281.94Y-135.255
X283.21Y-180.975
X283.21Y-191.135
X283.21Y-196.215
X287.02Y-135.255
X287.02Y-140.335
X287.02Y-142.875
X287.02Y-145.415
X287.02Y-147.955
X287.02Y-150.495
X287.02Y-153.035
X287.02Y-155.575
X287.02Y-158.115
X290.83Y-163.195
X290.83Y-168.275
X290.83Y-173.355
X290.83Y-177.165
X290.83Y-179.705
X290.83Y-182.245
X293.37Y-140.335
X293.37Y-142.875
X293.37Y-145.415
X293.37Y-147.955
X293.37Y-150.495
X293.37Y-153.035
X293.37Y-155.575
X295.91Y-135.255
X295.91Y-191.135
X295.91Y-196.215
X298.45Y-112.395
X298.45Y-117.475
X299.72Y-191.135
X300.99Y-135.255
X300.99Y-140.335
X300.99Y-142.875
X300.99Y-145.415
X300.99Y-147.955
X300.99Y-150.495
X300.99Y-153.035
X300.99Y-155.575
X300.99Y-163.195
X300.99Y-165.735
X300.99Y-168.275
X306.07Y-97.028
X306.07Y-206.375
X306.07Y-213.995
X307.34Y-83.185
X307.34Y-88.265
X307.34Y-112.395
X307.34Y-117.475
X307.34Y-135.255
X307.34Y-147.955
X307.34Y-155.575
X307.34Y-160.655
X308.61Y-97.028
X309.88Y-83.185
X309.88Y-88.265
X311.15Y-97.028
X311.15Y-135.255
X311.15Y-147.955
X311.15Y-206.375
X311.15Y-213.995
X312.42Y-83.185
X312.42Y-88.265
X312.42Y-155.575
X312.42Y-160.655
X312.42Y-168.275
X312.42Y-180.975
X312.42Y-191.135
X313.69Y-97.028
X314.96Y-83.185
X314.96Y-88.265
X316.23Y-97.028
X316.23Y-112.395
X316.23Y-117.475
X317.5Y-83.185
X317.5Y-88.265
X318.77Y-97.028
X320.04Y-83.185
X320.04Y-88.265
X321.31Y-97.028
X321.31Y-208.915
X321.31Y-213.995
X322.58Y-83.185
X322.58Y-88.265
X323.85Y-97.028
X325.12Y-83.185
X325.12Y-88.265
X326.39Y-97.028
X326.39Y-203.835
X327.66Y-83.185
X327.66Y-88.265
X328.93Y-97.028
X328.93Y-203.835
X328.93Y-208.915
X328.93Y-213.995
X330.2Y-83.185
X330.2Y-88.265
X330.2Y-130.688
X330.2Y-178.308
X331.47Y-114.935
X331.47Y-120.015
X331.47Y-203.962
X332.74Y-83.185
X332.74Y-88.265
X335.28Y-83.185
X335.28Y-88.265
X337.82Y-83.185
X337.82Y-88.265
X340.36Y-83.185
X340.36Y-88.265
X341.63Y-97.155
X341.63Y-102.235
X341.63Y-109.855
X341.63Y-180.975
X341.63Y-186.055
X342.9Y-83.185
X342.9Y-88.265
X345.44Y-83.185
X345.44Y-88.265
X347.98Y-83.185
X347.98Y-88.265
X347.98Y-130.815
X347.98Y-178.435
X350.52Y-83.185
X350.52Y-88.265
X351.79Y-97.155
X351.79Y-109.855
X353.06Y-83.185
X353.06Y-88.265
X355.6Y-83.185
X355.6Y-88.265
X355.6Y-180.975
X355.6Y-186.055
X358.14Y-83.185
X358.14Y-88.265
X360.68Y-83.185
X360.68Y-88.265
X360.68Y-144.145
X360.68Y-149.225
X360.68Y-157.48
X360.68Y-170.18
X360.68Y-173.355
X360.68Y-186.055
X361.95Y-97.155
X361.95Y-109.855
X372.01Y-143.515
X372.01Y-191.135
X372.11Y-97.155
X372.11Y-102.235
X372.11Y-109.855
X372.11Y-203.835
X372.11Y-206.375
X372.237Y-201.295
X377.19Y-61.595
X377.19Y-76.835
X379.73Y-198.755
X379.73Y-203.835
X379.73Y-208.915
X382.27Y-61.595
X382.27Y-66.675
X382.27Y-76.835
X382.27Y-81.915
X384.81Y-178.435
X384.81Y-191.135
X387.812Y-112.364
X387.812Y-115.134
X387.812Y-117.904
X387.812Y-120.674
X387.812Y-123.444
X387.812Y-144.284
X387.812Y-147.054
X387.812Y-149.824
X387.812Y-152.594
X387.812Y-155.364
X390.652Y-113.749
X390.652Y-116.519
X390.652Y-119.289
X390.652Y-122.059
X390.652Y-145.669
X390.652Y-148.439
X390.652Y-151.209
X390.652Y-153.979
X392.43Y-191.135
X392.43Y-198.755
X392.43Y-203.835
X392.43Y-208.915
X394.97Y-178.435
X394.97Y-183.515
X397.51Y-191.135
X397.51Y-198.755
X397.51Y-201.295
X397.51Y-203.835
T4
X364.49Y-130.175
X364.49Y-137.795
X372.11Y-130.175
X372.11Y-137.795
T5
X173.983Y-64.532
X176.483Y-54.532
X176.483Y-67.032
X181.483Y-64.532
X181.483Y-69.532
X186.483Y-54.532
X186.483Y-67.072
X188.983Y-64.532
X204.089Y-64.469
X204.089Y-69.469
X206.589Y-54.469
X206.589Y-66.969
X211.589Y-64.469
X211.589Y-69.469
X216.589Y-54.469
X216.589Y-67.009
X219.089Y-64.469
X219.089Y-69.469
X391.558Y-69.97
X391.558Y-84.97
X394.058Y-72.47
X394.058Y-82.47
X396.558Y-69.97
X396.558Y-77.47
X396.558Y-84.97
X404.017Y-75.01
X404.017Y-80.09
T6
X381.381Y-92.96
X381.381Y-97.79
X385.191Y-92.96
X385.191Y-97.79
X389.001Y-92.96
X389.001Y-97.79
X401.791Y-92.96
X401.791Y-97.79
T7
X226.695Y-146.05
X231.14Y-70.485
X247.015Y-115.57
X256.54Y-200.977
X276.225Y-54.61
X292.1Y-99.695
X294.368Y-81.77
X296.863Y-131.127
X316.865Y-186.055
X373.108Y-81.77
T8
X339.09Y-122.555
X346.71Y-122.555
X367.03Y-122.555
X374.65Y-122.555
T9
X134.77Y-79.375
X328.93Y-187.175
X355.45Y-203.835
M30
